<svg width="15" height="15" viewBox="0 0 15 15" fill="none" xmlns="http://www.w3.org/2000/svg">
<path d="M0 7.5C0 7.35082 0.0623823 7.20774 0.173424 7.10225C0.284465 6.99676 0.435069 6.9375 0.592105 6.9375H1.77632C1.93335 6.9375 2.08396 6.99676 2.195 7.10225C2.30604 7.20774 2.36842 7.35082 2.36842 7.5C2.36842 7.64918 2.30604 7.79226 2.195 7.89775C2.08396 8.00324 1.93335 8.0625 1.77632 8.0625H0.592105C0.435069 8.0625 0.284465 8.00324 0.173424 7.89775C0.0623823 7.79226 0 7.64918 0 7.5Z" fill="currentColor"/>
<path d="M3.15625 7.5C3.15625 7.35082 3.21863 7.20774 3.32967 7.10225C3.44071 6.99676 3.59132 6.9375 3.74836 6.9375H4.93257C5.0896 6.9375 5.24021 6.99676 5.35125 7.10225C5.46229 7.20774 5.52467 7.35082 5.52467 7.5C5.52467 7.64918 5.46229 7.79226 5.35125 7.89775C5.24021 8.00324 5.0896 8.0625 4.93257 8.0625H3.74836C3.59132 8.0625 3.44071 8.00324 3.32967 7.89775C3.21863 7.79226 3.15625 7.64918 3.15625 7.5Z" fill="currentColor"/>
<path d="M6.31641 7.5C6.31641 7.35082 6.37879 7.20774 6.48983 7.10225C6.60087 6.99676 6.75148 6.9375 6.90851 6.9375H8.09272C8.24976 6.9375 8.40036 6.99676 8.5114 7.10225C8.62244 7.20774 8.68483 7.35082 8.68483 7.5C8.68483 7.64918 8.62244 7.79226 8.5114 7.89775C8.40036 8.00324 8.24976 8.0625 8.09272 8.0625H6.90851C6.75148 8.0625 6.60087 8.00324 6.48983 7.89775C6.37879 7.79226 6.31641 7.64918 6.31641 7.5Z" fill="currentColor"/>
<path d="M9.47266 7.5C9.47266 7.35082 9.53504 7.20774 9.64608 7.10225C9.75712 6.99676 9.90773 6.9375 10.0648 6.9375H11.249C11.406 6.9375 11.5566 6.99676 11.6677 7.10225C11.7787 7.20774 11.8411 7.35082 11.8411 7.5C11.8411 7.64918 11.7787 7.79226 11.6677 7.89775C11.5566 8.00324 11.406 8.0625 11.249 8.0625H10.0648C9.90773 8.0625 9.75712 8.00324 9.64608 7.89775C9.53504 7.79226 9.47266 7.64918 9.47266 7.5Z" fill="currentColor"/>
<path d="M12.6328 7.5C12.6328 7.35082 12.6952 7.20774 12.8062 7.10225C12.9173 6.99676 13.0679 6.9375 13.2249 6.9375H14.4091C14.5662 6.9375 14.7168 6.99676 14.8278 7.10225C14.9389 7.20774 15.0012 7.35082 15.0012 7.5C15.0012 7.64918 14.9389 7.79226 14.8278 7.89775C14.7168 8.00324 14.5662 8.0625 14.4091 8.0625H13.2249C13.0679 8.0625 12.9173 8.00324 12.8062 7.89775C12.6952 7.79226 12.6328 7.64918 12.6328 7.5Z" fill="currentColor"/>
<path d="M1.97307 0C1.76369 0 1.56288 0.0790176 1.41483 0.21967C1.26677 0.360322 1.18359 0.551088 1.18359 0.75V3.75C1.18359 4.14782 1.34995 4.52936 1.64606 4.81066C1.94217 5.09196 2.34378 5.25 2.76254 5.25H12.2362C12.655 5.25 13.0566 5.09196 13.3527 4.81066C13.6488 4.52936 13.8152 4.14782 13.8152 3.75V0.75C13.8152 0.551088 13.732 0.360322 13.5839 0.21967C13.4359 0.0790176 13.2351 0 13.0257 0H1.97307Z" fill="currentColor"/>
<path d="M13.0257 15C13.2351 15 13.4359 14.921 13.5839 14.7803C13.732 14.6397 13.8152 14.4489 13.8152 14.25V11.25C13.8152 10.8522 13.6488 10.4706 13.3527 10.1893C13.0566 9.90804 12.655 9.75 12.2362 9.75H2.76254C2.34378 9.75 1.94217 9.90804 1.64606 10.1893C1.34995 10.4706 1.18359 10.8522 1.18359 11.25V14.25C1.18359 14.4489 1.26677 14.6397 1.41483 14.7803C1.56288 14.921 1.76369 15 1.97307 15H13.0257Z" fill="currentColor"/>
</svg>
