<svg width="16" height="15" viewBox="0 0 16 15"  xmlns="http://www.w3.org/2000/svg">
<path d="M4.0002 12.5C3.78802 12.5 3.58454 12.5843 3.43451 12.7343C3.28448 12.8843 3.2002 13.0878 3.2002 13.3C3.2002 13.5122 3.28448 13.7157 3.43451 13.8657C3.58454 14.0157 3.78802 14.1 4.0002 14.1H15.2002C15.4124 14.1 15.6159 14.0157 15.7659 13.8657C15.9159 13.7157 16.0002 13.5122 16.0002 13.3C16.0002 13.0878 15.9159 12.8843 15.7659 12.7343C15.6159 12.5843 15.4124 12.5 15.2002 12.5H4.0002Z" />
<path d="M8.7998 5.3C8.7998 5.08783 8.88409 4.88434 9.03412 4.73431C9.18415 4.58429 9.38763 4.5 9.5998 4.5H15.1998C15.412 4.5 15.6155 4.58429 15.7655 4.73431C15.9155 4.88434 15.9998 5.08783 15.9998 5.3C15.9998 5.51217 15.9155 5.71566 15.7655 5.86569C15.6155 6.01571 15.412 6.1 15.1998 6.1H9.5998C9.38763 6.1 9.18415 6.01571 9.03412 5.86569C8.88409 5.71566 8.7998 5.51217 8.7998 5.3Z" />
<path d="M3.2002 1.3C3.2002 1.08783 3.28448 0.884344 3.43451 0.734315C3.58454 0.584285 3.78802 0.5 4.0002 0.5H15.2002C15.4124 0.5 15.6159 0.584285 15.7659 0.734315C15.9159 0.884344 16.0002 1.08783 16.0002 1.3C16.0002 1.51217 15.9159 1.71566 15.7659 1.86569C15.6159 2.01571 15.4124 2.1 15.2002 2.1H4.0002C3.78802 2.1 3.58454 2.01571 3.43451 1.86569C3.28448 1.71566 3.2002 1.51217 3.2002 1.3Z" />
<path d="M8.7998 9.3C8.7998 9.08783 8.88409 8.88434 9.03412 8.73431C9.18415 8.58429 9.38763 8.5 9.5998 8.5H15.1998C15.412 8.5 15.6155 8.58429 15.7655 8.73431C15.9155 8.88434 15.9998 9.08783 15.9998 9.3C15.9998 9.51217 15.9155 9.71566 15.7655 9.86569C15.6155 10.0157 15.412 10.1 15.1998 10.1H9.5998C9.38763 10.1 9.18415 10.0157 9.03412 9.86569C8.88409 9.71566 8.7998 9.51217 8.7998 9.3Z" />
<path d="M7.2 7.29995C7.2 7.77271 7.10688 8.24084 6.92597 8.67761C6.74505 9.11438 6.47987 9.51124 6.14558 9.84553C5.81129 10.1798 5.41443 10.445 4.97766 10.6259C4.54089 10.8068 4.07276 10.9 3.6 10.9C3.12724 10.9 2.65911 10.8068 2.22234 10.6259C1.78557 10.445 1.38871 10.1798 1.05442 9.84553C0.720125 9.51124 0.454951 9.11438 0.274034 8.67761C0.0931168 8.24084 -7.04465e-09 7.77271 0 7.29995C1.42273e-08 6.34517 0.379285 5.4295 1.05442 4.75437C1.72955 4.07924 2.64522 3.69995 3.6 3.69995C4.55478 3.69995 5.47045 4.07924 6.14558 4.75437C6.82071 5.4295 7.2 6.34517 7.2 7.29995ZM4 5.69995C4 5.59386 3.95786 5.49212 3.88284 5.41711C3.80783 5.34209 3.70609 5.29995 3.6 5.29995C3.49391 5.29995 3.39217 5.34209 3.31716 5.41711C3.24214 5.49212 3.2 5.59386 3.2 5.69995V6.89995H2C1.89391 6.89995 1.79217 6.94209 1.71716 7.01711C1.64214 7.09212 1.6 7.19386 1.6 7.29995C1.6 7.40604 1.64214 7.50778 1.71716 7.58279C1.79217 7.65781 1.89391 7.69995 2 7.69995H3.2V8.89995C3.2 9.00604 3.24214 9.10778 3.31716 9.18279C3.39217 9.25781 3.49391 9.29995 3.6 9.29995C3.70609 9.29995 3.80783 9.25781 3.88284 9.18279C3.95786 9.10778 4 9.00604 4 8.89995V7.69995H5.2C5.30609 7.69995 5.40783 7.65781 5.48284 7.58279C5.55786 7.50778 5.6 7.40604 5.6 7.29995C5.6 7.19386 5.55786 7.09212 5.48284 7.01711C5.40783 6.94209 5.30609 6.89995 5.2 6.89995H4V5.69995Z" />
</svg>
