<svg width="15" height="15" viewBox="0 0 15 15"  xmlns="http://www.w3.org/2000/svg">
<path d="M7.5 1.5C5.9087 1.5 4.38258 2.13214 3.25736 3.25736C2.13214 4.38258 1.5 5.9087 1.5 7.5C1.5 9.0913 2.13214 10.6174 3.25736 11.7426C4.38258 12.8679 5.9087 13.5 7.5 13.5C9.0913 13.5 10.6174 12.8679 11.7426 11.7426C12.8679 10.6174 13.5 9.0913 13.5 7.5C13.5 5.9087 12.8679 4.38258 11.7426 3.25736C10.6174 2.13214 9.0913 1.5 7.5 1.5ZM0 7.5C0 3.35775 3.35775 0 7.5 0C11.6423 0 15 3.35775 15 7.5C15 11.6423 11.6423 15 7.5 15C3.35775 15 0 11.6423 0 7.5Z" />
<path d="M6.96966 0.219727C2.94891 4.23973 2.94891 10.7595 6.96966 14.7802H8.03016C12.0509 10.7595 12.0509 4.24048 8.03016 0.219727H6.96966ZM7.49991 1.85923C10.2277 5.11648 10.2277 9.88423 7.49991 13.1407C4.77216 9.88348 4.77216 5.11573 7.49991 1.85923Z" />
<path d="M0.75 5.25C0.75 5.05109 0.829018 4.86032 0.96967 4.71967C1.11032 4.57902 1.30109 4.5 1.5 4.5H13.5C13.6989 4.5 13.8897 4.57902 14.0303 4.71967C14.171 4.86032 14.25 5.05109 14.25 5.25C14.25 5.44891 14.171 5.63968 14.0303 5.78033C13.8897 5.92098 13.6989 6 13.5 6H1.5C1.30109 6 1.11032 5.92098 0.96967 5.78033C0.829018 5.63968 0.75 5.44891 0.75 5.25ZM0.75 9.75C0.75 9.55109 0.829018 9.36032 0.96967 9.21967C1.11032 9.07902 1.30109 9 1.5 9H13.5C13.6989 9 13.8897 9.07902 14.0303 9.21967C14.171 9.36032 14.25 9.55109 14.25 9.75C14.25 9.94891 14.171 10.1397 14.0303 10.2803C13.8897 10.421 13.6989 10.5 13.5 10.5H1.5C1.30109 10.5 1.11032 10.421 0.96967 10.2803C0.829018 10.1397 0.75 9.94891 0.75 9.75Z" />
</svg>
